<?xml version="1.0" standalone="no"?>
<!DOCTYPE svg PUBLIC "-//W3C//DTD SVG 20010904//EN"
 "http://www.w3.org/TR/2001/REC-SVG-20010904/DTD/svg10.dtd">
<svg version="1.0" xmlns="http://www.w3.org/2000/svg"
 width="512.000000pt" height="512.000000pt" viewBox="0 0 512.000000 512.000000"
 preserveAspectRatio="xMidYMid meet">

<g transform="translate(0.000000,512.000000) scale(0.100000,-0.100000)"
fill="#000000" stroke="none">
<path d="M2400 5054 c-19 -2 -80 -9 -135 -15 -122 -12 -328 -57 -460 -99 -719
-231 -1300 -784 -1568 -1495 -50 -134 -109 -358 -133 -510 -21 -138 -29 -461
-15 -608 21 -214 80 -474 141 -619 97 -230 300 -409 542 -479 104 -30 279 -37
386 -15 170 34 298 103 422 226 77 76 170 207 170 239 0 6 6 11 13 11 7 0 27
15 44 32 l32 33 3 460 c5 519 3 509 85 675 38 77 61 109 127 176 67 66 99 89
176 127 127 63 201 81 330 81 129 0 203 -18 329 -80 76 -38 108 -61 176 -129
68 -68 91 -100 129 -176 81 -166 79 -151 84 -709 2 -329 7 -499 14 -507 16
-19 441 -19 457 0 7 10 11 165 11 518 1 419 -2 518 -15 587 -98 511 -511 905
-1022 973 -107 14 -322 6 -413 -16 -154 -37 -295 -97 -412 -175 l-58 -38 0 26
c0 34 -34 109 -63 141 -36 39 -115 71 -177 71 -93 -1 -171 -46 -213 -125 -22
-40 -22 -44 -27 -855 l-5 -815 -23 -57 c-76 -187 -298 -277 -480 -193 -111 51
-164 126 -215 305 -150 517 -68 1112 216 1578 170 278 431 534 705 691 843
482 1909 296 2528 -441 507 -604 612 -1447 269 -2155 -195 -405 -503 -717
-900 -916 -292 -145 -568 -210 -895 -210 -367 0 -656 76 -1014 269 -121 65
-222 57 -307 -25 -45 -44 -79 -118 -79 -171 0 -53 34 -127 79 -171 54 -52 309
-183 476 -244 421 -154 932 -187 1374 -89 353 79 715 251 1013 484 106 82 314
291 398 398 231 296 406 660 484 1012 85 384 79 785 -19 1165 -249 973 -1073
1704 -2075 1841 -105 14 -424 26 -490 18z"/>
</g>
</svg>
